Coordinates
version=1
nRows=4
nColumns=63
inDegrees=yes

Units are S.I. units (second, meters, Newtons, ...)
If the header above contains a line with 'inDegrees', this indicates whether rotational values are in degrees (yes) or radians (no).

endheader
time	pelvis_tilt	pelvis_list	pelvis_rotation	pelvis_tx	pelvis_ty	pelvis_tz	hip_flexion_r	hip_adduction_r	hip_rotation_r	knee_angle_r	knee_angle_r_beta	ankle_angle_r	subtalar_angle_r	mtp_angle_r	hip_flexion_l	hip_adduction_l	hip_rotation_l	knee_angle_l	knee_angle_l_beta	ankle_angle_l	subtalar_angle_l	mtp_angle_l	L5_S1_Flex_Ext	L5_S1_Lat_Bending	L5_S1_axial_rotation	L4_L5_Flex_Ext	L4_L5_Lat_Bending	L4_L5_axial_rotation	L3_L4_Flex_Ext	L3_L4_Lat_Bending	L3_L4_axial_rotation	L2_L3_Flex_Ext	L2_L3_Lat_Bending	L2_L3_axial_rotation	L1_L2_Flex_Ext	L1_L2_Lat_Bending	L1_L2_axial_rotation	L1_T12_Flex_Ext	L1_T12_Lat_Bending	L1_T12_axial_rotation	Abs_r3	Abs_r2	Abs_r1	Abs_t1	Abs_t2	neck_flexion	neck_bending	neck_rotation	arm_flex_r	arm_add_r	arm_rot_r	elbow_flex_r	pro_sup_r	wrist_flex_r	wrist_dev_r	arm_flex_l	arm_add_l	arm_rot_l	elbow_flex_l	pro_sup_l	wrist_flex_l	wrist_dev_l
      2.94915254	     -1.20950438	    -19.89654199	     80.19201773	      0.15865904	      0.83605350	      0.46341016	     33.87703435	     -5.22832567	    -13.87278655	     26.93601489	      0.47012215	     25.46282932	     17.84393406	      0.00000000	     30.32959114	     -2.04526370	     -7.84968192	     21.70779788	      0.37887255	     20.30783180	     -5.99464312	      0.00000000	     -0.49208371	     -0.73471244	      1.25868895	     -0.91384865	     -0.97716754	      1.33735701	     -0.80844432	     -1.78637982	      1.33735701	     -0.56240247	     -1.78637982	      1.10135283	     -0.45694893	     -1.49822560	      1.02268477	     -0.28117663	     -1.13806957	      0.94401671	     -3.51490472	     -8.31121404	      7.00045034	      0.00000000	      0.00000000	     -3.26464371	      8.43949321	      4.91700361	     -0.64274088	    -14.36440837	     37.83913004	     41.73631153	     87.13792645	      0.42615709	     14.02653287	     -4.72670669	    -19.05340198	     39.90600524	     42.65618969	     87.31223842	    -19.49400855	    -11.77197551
      2.96610169	     -0.84746305	    -19.84158206	     80.89614248	      0.15931079	      0.83642503	      0.46357690	     33.50562844	     -5.12848422	    -14.57699414	     26.63631186	      0.46489134	     25.43607095	     17.81854589	      0.00000000	     30.52862158	     -2.25345414	     -7.43754225	     22.18284795	      0.38716373	     20.46057039	     -5.67953360	      0.00000000	     -0.48697198	     -0.71749319	      1.22554088	     -0.90435566	     -0.95426594	      1.30213718	     -0.80004626	     -1.74451294	      1.30213718	     -0.55656027	     -1.74451294	      1.07234827	     -0.45220218	     -1.46311211	      0.99575196	     -0.27825579	     -1.11139695	      0.91915566	     -3.47839213	     -8.11642646	      6.81609070	      0.00000000	      0.00000000	     -2.93059723	      8.82087036	      4.94541470	     -0.79540679	    -14.24037511	     37.06073198	     42.18521012	     87.29828148	      0.68722662	     14.87785859	     -4.93091384	    -18.84391037	     38.90184110	     42.49840232	     87.57057536	    -19.38123079	    -11.88789055
      2.98305085	     -0.38111181	    -19.71215734	     81.63528316	      0.15984767	      0.83710412	      0.46343166	     33.02002172	     -4.93830660	    -15.31506223	     26.31091343	      0.45921207	     25.23482932	     17.81811910	      0.00000000	     30.62055036	     -2.55886192	     -7.16175288	     22.67596711	      0.39577029	     20.68266787	     -5.14814575	      0.00000000	     -0.47440887	     -0.68771225	      1.17122783	     -0.88102471	     -0.91465729	      1.24442957	     -0.77940633	     -1.67210357	      1.24442957	     -0.54220190	     -1.67210357	      1.02482435	     -0.44053608	     -1.40238282	      0.95162261	     -0.27107723	     -1.06526628	      0.87842087	     -3.38865511	     -7.77953853	      6.51401781	      0.00000000	      0.00000000	     -2.33882498	      8.85771956	      4.90721051	     -0.61904555	    -14.43377765	     37.22064072	     42.77279417	     87.81037453	      0.78546551	     15.85985474	     -4.99161804	    -18.56603939	     38.28006479	     41.96248954	     87.73307885	    -19.14093550	    -11.97627277
      3.00000000	      0.15051250	    -19.48981329	     82.44804592	      0.16009772	      0.83828636	      0.46278639	     32.35040765	     -4.70583055	    -16.05798291	     25.87987604	      0.45168905	     24.89193205	     17.85122407	      0.00000000	     30.55348737	     -2.85984056	     -6.84069181	     23.08583115	      0.40292376	     20.74298353	     -4.63726742	      0.00000000	     -0.45604761	     -0.65001440	      1.06680114	     -0.84692601	     -0.86451915	      1.13347622	     -0.74924061	     -1.58044502	      1.13347622	     -0.52121681	     -1.58044502	      0.93345100	     -0.42348581	     -1.32550937	      0.86677593	     -0.26058560	     -1.00687231	      0.80010086	     -3.25750245	     -7.35309292	      5.93322792	      0.00000000	      0.00000000	     -1.42830197	      8.50092338	      4.69527507	     -0.02279067	    -14.89947165	     38.61925190	     43.18909439	     88.32095117	      0.05391052	     16.42184905	     -4.92946251	    -18.21790871	     38.14745078	     41.00749132	     87.76361508	    -19.20454889	    -12.08528663
